
****** My.Life.in.Ruins.2009.DVDRiP.XviD.OPTIONAL-NORDIC_SUB-Zen_Bud ********

Format                           : AVI
File size                        : 706 MiB
Duration                         : 1h 30mn
Overall bit rate                 : 1 085 Kbps

Video

Format                           : MPEG-4 Visual
Codec ID/Hint                    : XviD
Duration                         : 1h 30mn
Bit rate                         : 944 Kbps
Width                            : 720 pixels
Height                           : 576 pixels
Display aspect ratio             : 16:9
Stream size                      : 614 MiB (87%)
Writing library                  : XviD 1.1.2 (UTC 2006-11-01)

Audio

Format                           : MPEG Audio
Codec ID/Hint                    : MP3
Duration                         : 1h 30mn
Bit rate                         : 128 Kbps
Channel(s)                       : 2 channels
Sampling rate                    : 48.0 KHz
Stream size                      : 83.3 MiB (12%)
Writing library                  : LAME3.98
Language                         : English

Text #1
Language                         : Swedish

Text #2
Language                         : Norwegian

Text #3
Language                         : Danish

Text #4
Language                         : Finnish



A travel guide rediscovers her romantic side on a trip around Greece.
